<!--<svg width="341.99" height="219.13" xmlns="http://www.w3.org/2000/svg" xmlns:svg="http://www.w3.org/2000/svg">-->
<svg width="684" height="440" xmlns="http://www.w3.org/2000/svg" xmlns:svg="http://www.w3.org/2000/svg">
 <defs>
  <style>.cls-1{fill:#6cc221;}</style>
 </defs>
 <title>AV-Corporate-Logo</title>
 <g>
  <title>Layer 1</title>
  <path fill="black" id="svg_12" d="m49.489998,1.559998c-26.1,0 -47.25,22.86 -47.25,51.07a54.52,54.52 0 0 0 3.45,19.15c9,24.86 34.2,49.85 43.8,49.1c9.6,0.75 34.81,-24.25 43.8,-49.1a54.56,54.56 0 0 0 3.45,-19.15c0,-28.22 -21.15,-51.07 -47.25,-51.07zm-42.72,53.39s38.35,-5.37 38.35,32.51c0,-0.01 -38.35,2.61 -38.35,-32.52l0,0.01zm47.1,32.51c0,-37.89 38.34,-32.51 38.34,-32.51c0,35.12 -38.34,32.5 -38.34,32.5l0,0.01z" class="cls-1"/>
 </g>
</svg>
